<svg width="47" height="54" viewBox="0 0 47 54" fill="none" xmlns="http://www.w3.org/2000/svg">
    <g clip-path="url(#clip0_574_866)">
        <path d="M23.5343 23.9196L23.2585 53.4298L46.6091 39.3162V28.3187V11.0891L23.5343 23.9196ZM42.3802 35.5587L27.8551 44.1735V38.858L42.3802 31.1597V35.5587ZM42.3802 25.6609L27.8551 33.6342V28.502L42.3802 20.3454V25.6609Z" fill="black" />
        <path d="M0 11.2725L4.78042 13.747L24.8214 4.03245L28.7744 5.86538L9.19311 16.1298L23.5344 23.9197L46.6091 11.0892L41.4609 8.61477L23.3505 18.3293L18.662 15.7632L37.1402 6.5069L23.5344 0L0 11.2725Z" fill="#E8AA00" />
        <path d="M23.6262 23.9198L0.551514 11.9141V28.3188V39.3164L23.902 53.43L23.6262 23.9198ZM19.3055 44.1736L4.78035 35.5589V31.1598L19.3055 38.8582V44.1736ZM19.3055 33.6343L4.78035 25.661V20.3455L19.3055 28.5021V33.6343Z" fill="#999999" />
    </g>
    <defs>
        <clipPath id="clip0_574_866">
            <rect width="46.6091" height="53.4299" fill="white" />
        </clipPath>
    </defs>
</svg>
    